<svg width="131" height="37" viewBox="0 0 131 37" xmlns="http://www.w3.org/2000/svg">
    <title>
        assist_logo
    </title>
    <g fill="#FFF" fill-rule="evenodd">
        <path d="M40.692 15.068c1.2.393 2.472.895 3.83 1.528l1.172-3.233c-2.39-1.2-4.528-2.018-6.468-2.54C36.28 4.848 30.138.724 23.05.724c-8.79 0-16.125 6.34-17.71 14.696-1.182-.392-2.43-.887-3.762-1.508L.404 17.144c1.656.832 3.19 1.477 4.62 1.968.02 1.2.156 2.37.4 3.5-1.204-.396-2.48-.9-3.845-1.535L.403 24.31c2.408 1.208 4.56 2.028 6.508 2.548 2.96 5.937 9.08 10.024 16.14 10.024 8.766 0 16.09-6.306 17.7-14.633 1.18.39 2.434.887 3.77 1.51l1.172-3.232c-1.654-.83-3.187-1.475-4.617-1.968-.015-1.194-.147-2.363-.385-3.492zM23.052 4.624c4.52 0 8.547 2.142 11.14 5.463-9.842-.142-14.142 8.05-25.07 6.277 1.16-6.66 6.962-11.74 13.93-11.74zM8.973 20.144c11.822 2.016 15.91-7.603 27.4-6.088.392 1.104.65 2.267.76 3.476-11.82-2.02-15.91 7.588-27.382 6.087-.4-1.103-.663-2.268-.778-3.477zM23.05 32.98c-4.49 0-8.496-2.112-11.088-5.396 9.802.114 14.104-8.04 25.004-6.276-1.184 6.624-6.97 11.672-13.915 11.672z" opacity=".7"/>
        <path d="M58.87 11.5l-4.654 13.326h5.09l.893-2.875h3.986l.912 2.876h5.354L65.724 11.5H58.87zm3.36 3.162l1.388 4.17h-2.83l1.368-4.17h.075zM81.9 11.73c-1.594-.343-3.018-.457-4.404-.457-5.638 0-6.854 2.456-6.854 4.32 0 3.275 2.924 3.827 4.842 4.226.987.21 2.164.304 2.164 1.104 0 .818-1.368.932-2.28.932-1.08 0-2.657-.134-4.574-.895v3.466c2.107.537 4.158.63 5.486.63 5.81 0 6.494-2.97 6.494-4.474 0-3.35-3-3.827-5.354-4.284-.854-.152-1.652-.304-1.652-.933 0-.875 1.178-.894 2.184-.894 1.842 0 3.094.363 3.95.686V11.73zm13.082 0c-1.595-.343-3.02-.457-4.404-.457-5.64 0-6.854 2.456-6.854 4.32 0 3.275 2.924 3.827 4.84 4.226.988.21 2.165.304 2.165 1.104 0 .818-1.368.932-2.28.932-1.08 0-2.657-.134-4.575-.895v3.466c2.108.537 4.16.63 5.487.63 5.81 0 6.494-2.97 6.494-4.474 0-3.35-3-3.827-5.355-4.284-.852-.152-1.65-.304-1.65-.933 0-.875 1.176-.894 2.183-.894 1.84 0 3.095.363 3.95.686V11.73zm2.392-.23v13.326h5.088V11.5h-5.088zm17.866.23c-1.595-.343-3.02-.457-4.405-.457-5.638 0-6.853 2.456-6.853 4.32 0 3.275 2.924 3.827 4.84 4.226.988.21 2.165.304 2.165 1.104 0 .818-1.367.932-2.278.932-1.084 0-2.66-.134-4.577-.895v3.466c2.108.537 4.158.63 5.487.63 5.81 0 6.493-2.97 6.493-4.474 0-3.35-3-3.827-5.354-4.284-.855-.152-1.653-.304-1.653-.933 0-.875 1.177-.894 2.184-.894 1.842 0 3.095.363 3.95.686V11.73zm1.538-.23v3.942h4.48v9.384h5.088v-9.384h4.48v-3.94H116.78z"/>
    </g>
</svg>
