<svg width="187" height="26" viewBox="0 0 187 26" xmlns="http://www.w3.org/2000/svg">
    <title>
        Shape
    </title>
    <path d="M185.005 12.08h-4.997v13.313h-5.76V12.08h-5.264V7.35h17.47l-1.45 4.73zm-24.187 9.27c1.907 0 3.318-.458 4.654-1.22l1.678 3.89c-2.136 1.297-4.425 1.754-6.79 1.754-7.172 0-9.766-4.577-9.766-9.193 0-5.416 2.938-9.688 8.622-9.688 5.416 0 8.582 3.738 8.582 9.88v1.335h-11.443c.114 2.212 2.02 3.242 4.463 3.242zm1.22-7.058c-.038-1.564-.84-3.128-2.937-3.128-1.906 0-2.822 1.526-2.822 3.128h5.76zm-19.605-1.87h-2.67c-.573 4.884-1.755 8.813-3.662 11.064-1.182 1.41-2.746 2.174-4.958 2.174-.344 0-.916-.038-1.374-.153v-5.035c.267.076.572.076.65.076.685 0 1.258-.305 1.753-.99 1.298-1.756 2.557-5.914 3.358-12.208h12.665v18.043h-5.76v-12.97zm-20.628 6.524c0-1.488.076-3.052.19-4.043h-.114c-.342.648-1.296 2.288-2.288 3.738l-4.653 6.753h-5.647V7.35h5.607v6.446c0 1.488-.076 3.052-.19 4.044h.114c.343-.65 1.297-2.29 2.29-3.738l4.653-6.752h5.645v18.043h-5.607v-6.447zM95.19 9.524c2.67 0 5.187.343 7.133 1.41 2.136 1.146 3.547 3.168 3.547 6.448 0 4.54-2.708 8.01-10.642 8.01h-7.44V.256h17.167l-1.412 4.692h-9.918v4.577h1.564zm-1.565 11.14h1.717c3.395 0 4.692-1.03 4.692-3.206 0-1.22-.458-2.02-1.183-2.48-.914-.57-2.25-.724-3.66-.724h-1.565v6.41zm-13.004-2.29l3.244 7.02h-6.256l-1.946-5.532c-.38-1.03-.8-1.526-1.297-1.526h-2.327v7.057h-5.76V7.35h5.76v6.675h1.793c2.06 0 1.985-3.51 3.625-5.607.725-.916 1.793-1.526 3.51-1.526.572 0 1.64.076 2.25.305v4.845c-.305-.115-.725-.19-1.144-.19-.533 0-.915.19-1.22.533-.877 1.068-1.068 3.09-2.25 3.89v.077c.84.344 1.525.954 2.02 2.022zm-23.83.572c0-1.488.075-3.052.19-4.043h-.115c-.343.648-1.297 2.288-2.29 3.738l-4.652 6.753h-5.646V7.35h5.607v6.446c0 1.488-.076 3.052-.19 4.044h.114c.343-.65 1.297-2.29 2.29-3.738L56.75 7.35h5.646v18.043H56.79v-6.447zm-22.16-6.523h-2.67c-.572 4.883-1.754 8.812-3.662 11.063-1.182 1.41-2.746 2.174-4.96 2.174-.342 0-.914-.038-1.372-.153v-5.035c.267.076.572.076.648.076.687 0 1.26-.305 1.755-.99 1.296-1.756 2.555-5.914 3.356-12.208H40.39v18.043h-5.76v-12.97zM16.3 14.98l5.303 10.413H14.85l-3.508-7.973c-.916-2.098-1.45-2.44-2.213-2.44H5.85v10.413H.01V.255H5.85v10.032h2.097c3.242 0 3.47-4.5 5.378-7.706 1.068-1.79 2.71-2.593 4.768-2.593.878 0 2.175.153 2.976.458V5.52c-.688-.268-1.26-.345-1.756-.345-.8 0-1.335.306-1.716.84-1.107 1.602-1.83 5.035-3.815 6.37v.076c.954.383 1.755.993 2.518 2.52z" fill="#FFF" fill-rule="evenodd"/>
</svg>
