<svg width="20" height="20" viewBox="0 0 20 20" xmlns="http://www.w3.org/2000/svg">
    <title>
        twitter-3-icon
    </title>
    <path d="M17.573 0H2.427C1.087 0 0 1.087 0 2.427v15.146C0 18.913 1.087 20 2.427 20h15.146C18.913 20 20 18.913 20 17.573V2.427C20 1.087 18.913 0 17.573 0zm-1.945 7.627c.173 3.838-2.69 8.117-7.755 8.117-1.54 0-2.976-.452-4.183-1.226 1.447.17 2.892-.23 4.04-1.13-1.194-.022-2.202-.81-2.55-1.895.428.082.85.058 1.233-.046C5.1 11.183 4.195 10 4.223 8.737c.37.204.79.327 1.237.34-1.215-.81-1.56-2.416-.844-3.642 1.346 1.65 3.356 2.737 5.624 2.85-.398-1.706.897-3.35 2.658-3.35.785 0 1.494.332 1.992.862.62-.122 1.205-.35 1.732-.662-.203.637-.636 1.172-1.2 1.51.552-.066 1.078-.213 1.568-.43-.366.547-.83 1.028-1.362 1.412z" fill="#FFF" fill-rule="evenodd"/>
</svg>
