<svg width="20" height="20" viewBox="0 0 20 20" xmlns="http://www.w3.org/2000/svg">
    <title>
        vk-3-icon
    </title>
    <path d="M17.573 0H2.427C1.087 0 0 1.087 0 2.427v15.146C0 18.913 1.087 20 2.427 20h15.146C18.913 20 20 18.913 20 17.573V2.427C20 1.087 18.913 0 17.573 0zm-1.23 14.243h-1.866c-1.054 0-1.234-.6-2.102-1.47-.785-.784-1.22-.183-1.2.936.004.295-.142.533-.497.533-1.106 0-2.695.155-4.303-1.58C4.638 10.788 3.17 7.5 3.04 7.16c-.127-.34.053-.506.42-.506h1.898c.502 0 .545.257.685.577.583 1.332 1.982 4.003 2.354 2.512.213-.856.3-2.68-.615-2.85-.65-.12.94-.96 2.776-.533.672.155.675.457.666.897-.034 1.665-.235 2.626.204 2.91.42.27 1.522-1.504 2.102-2.872.16-.378.193-.64.643-.64h2.323c1.216 0-.158 1.756-1.21 3.12-.847 1.1-.8 1.12.183 2.034 1.033.96 2.342 2.433.873 2.433z" fill="#000" fill-rule="evenodd"/>
</svg>
