<?xml version="1.0" encoding="UTF-8" standalone="no"?>
<svg width="131px" height="37px" viewBox="0 0 131 37" version="1.1" xmlns="http://www.w3.org/2000/svg" xmlns:xlink="http://www.w3.org/1999/xlink" xmlns:sketch="http://www.bohemiancoding.com/sketch/ns">
    <!-- Generator: Sketch 3.4.4 (17249) - http://www.bohemiancoding.com/sketch -->
    <title>assist_logo</title>
    <desc>Created with Sketch.</desc>
    <defs></defs>
    <g id="Production" stroke="none" stroke-width="1" fill="none" fill-rule="evenodd" sketch:type="MSPage">
        <g id="Desktop-HD-Copy-12" sketch:type="MSArtboardGroup" transform="translate(-901.000000, -776.000000)" fill="#FFFFFF">
            <g id="assist_logo" sketch:type="MSLayerGroup" transform="translate(901.000000, 776.000000)">
                <path d="M40.692226,15.0678478 C41.8916045,15.4611739 43.1639887,15.963087 44.5214124,16.5961087 L45.6943164,13.3626304 C43.3043842,12.1641522 41.1655593,11.3453261 39.2256949,10.8241087 C36.2814011,4.847 30.1376949,0.723913043 23.0505311,0.723913043 C14.2601695,0.723913043 6.92510734,7.06297826 5.33903955,15.4185435 C4.15811299,15.0276304 2.90899435,14.5329565 1.5780452,13.912 L0.403536723,17.1438696 C2.06020339,17.9755652 3.59332203,18.6206522 5.02455367,19.1121087 C5.04541243,20.310587 5.18019209,21.4817174 5.42327684,22.6126304 C4.21988701,22.216087 2.94268927,21.7125652 1.57884746,21.0771304 L0.404338983,24.311413 C2.8119209,25.5179348 4.96277966,26.3375652 6.91227119,26.8579783 C9.87180791,32.7948696 15.9914463,36.8817609 23.0513333,36.8817609 C31.8184294,36.8817609 39.1414576,30.5764783 40.750791,22.2490652 C41.9325198,22.6399783 43.186452,23.1370652 44.5214124,23.7596304 L45.6943164,20.5277609 C44.0400565,19.6968696 42.5069379,19.052587 41.0765085,18.5603261 C41.0620678,17.3658696 40.9304972,16.1971522 40.692226,15.0678478 L40.692226,15.0678478 L40.692226,15.0678478 L40.692226,15.0678478 Z M23.0513333,4.62419565 C27.5712655,4.62419565 31.5986102,6.76617391 34.1907119,10.0873261 C24.3501921,9.94495652 20.0500791,18.1364348 9.12329944,16.3636522 C10.282565,9.70365217 16.0837062,4.62419565 23.0513333,4.62419565 L23.0513333,4.62419565 L23.0513333,4.62419565 L23.0513333,4.62419565 Z M8.9740791,20.1432826 C20.7961808,22.1597826 24.8836949,12.540587 36.3728588,14.0559783 C36.7659661,15.1595435 37.0242938,16.3234348 37.1325989,17.5323696 C25.3145085,15.5134565 21.2229831,25.1197826 9.75227119,23.6188696 C9.3519435,22.516913 9.08880226,21.3522174 8.9740791,20.1432826 L8.9740791,20.1432826 L8.9740791,20.1432826 L8.9740791,20.1432826 Z M23.0513333,32.9822826 C18.5594802,32.9822826 14.5537966,30.8700652 11.9616949,27.585913 C21.7637062,27.7001304 26.066226,19.5472609 36.9657288,21.309587 C35.7815932,27.9341957 29.9948927,32.9822826 23.0513333,32.9822826 L23.0513333,32.9822826 L23.0513333,32.9822826 Z" id="Shape" opacity="0.7" sketch:type="MSShapeGroup"></path>
                <path d="M58.8706328,11.5013696 L54.2159209,24.8261957 L59.3070621,24.8261957 L60.1991751,21.9514565 L64.1864068,21.9514565 L65.097774,24.8261957 L70.4520565,24.8261957 L65.724339,11.5013696 L58.8706328,11.5013696 L58.8706328,11.5013696 L58.8706328,11.5013696 L58.8706328,11.5013696 L58.8706328,11.5013696 L58.8706328,11.5013696 L58.8706328,11.5013696 L58.8706328,11.5013696 L58.8706328,11.5013696 Z M62.2312994,14.6616522 L63.6176045,18.830587 L60.7888362,18.830587 L62.155887,14.6616522 L62.2312994,14.6616522 Z M81.9011073,11.7298043 C80.3062147,11.3871522 78.8822034,11.2729348 77.4958983,11.2729348 C71.8576158,11.2729348 70.6421921,13.7286087 70.6421921,15.5938913 C70.6421921,18.867587 73.5664294,19.4201739 75.4838305,19.8191304 C76.4706102,20.0290652 77.6475254,20.1239783 77.6475254,20.9235 C77.6475254,21.7423261 76.2804746,21.8557391 75.3691073,21.8557391 C74.2868588,21.8557391 72.7112203,21.7222174 70.7938192,20.9613043 L70.7938192,24.4256304 C72.9013559,24.9629348 74.9519322,25.0570435 76.2804746,25.0570435 C82.0904407,25.0570435 82.7739661,22.0849783 82.7739661,20.5816522 C82.7739661,17.2307391 79.7743164,16.7553696 77.4204859,16.2985 C76.5660791,16.1464783 75.7678305,15.9936522 75.7678305,15.3654565 C75.7678305,14.4903261 76.945548,14.4710217 77.9515819,14.4710217 C79.7935706,14.4710217 81.0458983,14.8329783 81.9011073,15.1563261 L81.9011073,11.7298043 L81.9011073,11.7298043 Z M94.9819548,11.7298043 C93.3870621,11.3871522 91.9630508,11.2729348 90.577548,11.2729348 C84.9392655,11.2729348 83.7238418,13.7286087 83.7238418,15.5938913 C83.7238418,18.867587 86.6480791,19.4201739 88.5654802,19.8191304 C89.5522599,20.0290652 90.7291751,20.1239783 90.7291751,20.9235 C90.7291751,21.7423261 89.3621243,21.8557391 88.4507571,21.8557391 C87.3685085,21.8557391 85.7928701,21.7222174 83.8754689,20.9613043 L83.8754689,24.4256304 C85.9830056,24.9629348 88.0335819,25.0570435 89.3621243,25.0570435 C95.1720904,25.0570435 95.8556158,22.0849783 95.8556158,20.5816522 C95.8556158,17.2307391 92.8559661,16.7553696 90.5013333,16.2985 C89.6477288,16.1464783 88.8494802,15.9936522 88.8494802,15.3654565 C88.8494802,14.4903261 90.0263955,14.4710217 91.0332316,14.4710217 C92.8744181,14.4710217 94.127548,14.8329783 94.9819548,15.1563261 L94.9819548,11.7298043 L94.9819548,11.7298043 Z M97.3742938,11.5013696 L97.3742938,24.8261957 L102.462226,24.8261957 L102.462226,11.5013696 L97.3742938,11.5013696 Z M115.239819,11.7298043 C113.644927,11.3871522 112.220915,11.2729348 110.835412,11.2729348 C105.19713,11.2729348 103.981706,13.7286087 103.981706,15.5938913 C103.981706,18.867587 106.905944,19.4201739 108.822542,19.8191304 C109.810124,20.0290652 110.98704,20.1239783 110.98704,20.9235 C110.98704,21.7423261 109.619989,21.8557391 108.708621,21.8557391 C107.626373,21.8557391 106.050734,21.7222174 104.133333,20.9613043 L104.133333,24.4256304 C106.24087,24.9629348 108.291446,25.0570435 109.619989,25.0570435 C115.429955,25.0570435 116.11348,22.0849783 116.11348,20.5816522 C116.11348,17.2307391 113.113831,16.7553696 110.759198,16.2985 C109.904791,16.1464783 109.107345,15.9936522 109.107345,15.3654565 C109.107345,14.4903261 110.28426,14.4710217 111.291096,14.4710217 C113.132282,14.4710217 114.385412,14.8329783 115.239819,15.1563261 L115.239819,11.7298043 Z M116.777751,11.5013696 L116.777751,15.4418696 L121.258373,15.4418696 L121.258373,24.8261957 L126.346305,24.8261957 L126.346305,15.4418696 L130.826927,15.4418696 L130.826927,11.5013696 L116.777751,11.5013696 Z" id="Shape" sketch:type="MSShapeGroup"></path>
            </g>
        </g>
    </g>
</svg>