<?xml version="1.0" encoding="UTF-8" standalone="no"?>
<svg width="187px" height="26px" viewBox="0 0 187 26" version="1.1" xmlns="http://www.w3.org/2000/svg" xmlns:xlink="http://www.w3.org/1999/xlink" xmlns:sketch="http://www.bohemiancoding.com/sketch/ns">
    <!-- Generator: Sketch 3.4.4 (17249) - http://www.bohemiancoding.com/sketch -->
    <title>Shape</title>
    <desc>Created with Sketch.</desc>
    <defs></defs>
    <g id="Production" stroke="none" stroke-width="1" fill="none" fill-rule="evenodd" sketch:type="MSPage">
        <g id="Desktop-HD-Copy-6" sketch:type="MSArtboardGroup" transform="translate(-230.000000, -105.000000)" fill="#FFFFFF">
            <g id="Header" sketch:type="MSLayerGroup" transform="translate(230.000000, 104.000000)">
                <g id="Logo" sketch:type="MSShapeGroup">
                    <path d="M185.005,13.08 L180.008,13.08 L180.008,26.393 L174.248,26.393 L174.248,13.08 L168.984,13.08 L168.984,8.35 L186.455,8.35 L185.005,13.08 L185.005,13.08 Z M160.818,22.349 C162.725,22.349 164.136,21.892 165.472,21.129 L167.15,25.02 C165.014,26.317 162.725,26.774 160.36,26.774 C153.188,26.774 150.594,22.197 150.594,17.581 C150.594,12.164 153.532,7.892 159.216,7.892 C164.632,7.892 167.798,11.63 167.798,17.772 L167.798,19.107 L156.355,19.107 C156.469,21.319 158.376,22.349 160.818,22.349 L160.818,22.349 Z M162.038,15.292 C162,13.728 161.199,12.164 159.101,12.164 C157.194,12.164 156.278,13.69 156.278,15.292 L162.038,15.292 L162.038,15.292 Z M142.433,13.423 L139.763,13.423 C139.19,18.306 138.008,22.235 136.101,24.486 C134.918,25.897 133.354,26.66 131.142,26.66 C130.798,26.66 130.226,26.622 129.768,26.507 L129.768,21.472 C130.035,21.548 130.34,21.548 130.417,21.548 C131.103,21.548 131.676,21.243 132.171,20.557 C133.468,18.802 134.727,14.644 135.528,8.35 L148.193,8.35 L148.193,26.393 L142.433,26.393 L142.433,13.423 L142.433,13.423 Z M121.805,19.946 C121.805,18.458 121.881,16.894 121.996,15.903 L121.881,15.903 C121.538,16.551 120.584,18.191 119.592,19.641 L114.939,26.393 L109.293,26.393 L109.293,8.35 L114.9,8.35 L114.9,14.796 C114.9,16.284 114.824,17.848 114.71,18.84 L114.824,18.84 C115.167,18.191 116.121,16.551 117.113,15.102 L121.767,8.35 L127.412,8.35 L127.412,26.393 L121.805,26.393 L121.805,19.946 L121.805,19.946 Z M95.189,10.524 C97.86,10.524 100.377,10.867 102.323,11.935 C104.459,13.08 105.87,15.102 105.87,18.382 C105.87,22.922 103.162,26.393 95.228,26.393 L87.789,26.393 L87.789,1.255 L104.955,1.255 L103.543,5.947 L93.625,5.947 L93.625,10.524 L95.189,10.524 L95.189,10.524 Z M93.625,21.663 L95.342,21.663 C98.737,21.663 100.034,20.633 100.034,18.458 C100.034,17.238 99.576,16.437 98.851,15.979 C97.936,15.407 96.601,15.254 95.189,15.254 L93.625,15.254 L93.625,21.663 L93.625,21.663 Z M80.621,19.374 L83.864,26.393 L77.608,26.393 L75.662,20.862 C75.281,19.832 74.861,19.336 74.365,19.336 L72.038,19.336 L72.038,26.393 L66.278,26.393 L66.278,8.35 L72.038,8.35 L72.038,15.025 L73.831,15.025 C75.891,15.025 75.815,11.516 77.455,9.418 C78.18,8.502 79.248,7.892 80.965,7.892 C81.537,7.892 82.605,7.968 83.215,8.197 L83.215,13.042 C82.91,12.927 82.49,12.851 82.071,12.851 C81.537,12.851 81.155,13.042 80.85,13.385 C79.973,14.453 79.782,16.475 78.599,17.276 L78.599,17.352 C79.439,17.696 80.125,18.306 80.621,19.374 L80.621,19.374 Z M56.789,19.946 C56.789,18.458 56.865,16.894 56.98,15.903 L56.865,15.903 C56.522,16.551 55.568,18.191 54.576,19.641 L49.923,26.393 L44.277,26.393 L44.277,8.35 L49.884,8.35 L49.884,14.796 C49.884,16.284 49.808,17.848 49.694,18.84 L49.808,18.84 C50.151,18.191 51.105,16.551 52.097,15.102 L56.751,8.35 L62.396,8.35 L62.396,26.393 L56.789,26.393 L56.789,19.946 L56.789,19.946 Z M34.631,13.423 L31.96,13.423 C31.388,18.306 30.206,22.235 28.298,24.486 C27.116,25.897 25.552,26.66 23.339,26.66 C22.996,26.66 22.424,26.622 21.966,26.507 L21.966,21.472 C22.233,21.548 22.538,21.548 22.614,21.548 C23.301,21.548 23.873,21.243 24.369,20.557 C25.666,18.802 26.925,14.644 27.726,8.35 L40.391,8.35 L40.391,26.393 L34.631,26.393 L34.631,13.423 L34.631,13.423 Z M16.301,15.979 L21.603,26.393 L14.851,26.393 L11.342,18.42 C10.426,16.322 9.892,15.979 9.129,15.979 L5.849,15.979 L5.849,26.393 L0.012,26.393 L0.012,1.255 L5.849,1.255 L5.849,11.287 L7.947,11.287 C11.189,11.287 11.418,6.786 13.325,3.581 C14.393,1.789 16.034,0.987 18.093,0.987 C18.971,0.987 20.268,1.14 21.069,1.445 L21.069,6.519 C20.382,6.252 19.81,6.175 19.314,6.175 C18.513,6.175 17.979,6.481 17.598,7.015 C16.491,8.617 15.767,12.05 13.783,13.385 L13.783,13.461 C14.737,13.843 15.538,14.453 16.301,15.979 L16.301,15.979 Z" id="Shape"></path>
                </g>
            </g>
        </g>
    </g>
</svg>