<?xml version="1.0" encoding="UTF-8" standalone="no"?>
<svg width="20px" height="20px" viewBox="0 0 20 20" version="1.1" xmlns="http://www.w3.org/2000/svg" xmlns:xlink="http://www.w3.org/1999/xlink" xmlns:sketch="http://www.bohemiancoding.com/sketch/ns">
    <!-- Generator: Sketch 3.4.4 (17249) - http://www.bohemiancoding.com/sketch -->
    <title>twitter-3-icon</title>
    <desc>Created with Sketch.</desc>
    <defs></defs>
    <g id="Production" stroke="none" stroke-width="1" fill="none" fill-rule="evenodd" sketch:type="MSPage">
        <g id="Desktop-HD-Copy-6" sketch:type="MSArtboardGroup" transform="translate(-1188.000000, -617.000000)" fill="#FFFFFF">
            <g id="Banner" sketch:type="MSLayerGroup" transform="translate(0.000000, 71.000000)">
                <g id="vk-3-icon-+-twitter-3-icon" transform="translate(1146.000000, 546.000000)" sketch:type="MSShapeGroup">
                    <path d="M59.5728155,0 L44.4271845,0 C43.086699,0 42,1.08669903 42,2.42718447 L42,17.5728155 C42,18.913301 43.086699,20 44.4271845,20 L59.5728155,20 C60.913301,20 62,18.913301 62,17.5728155 L62,2.42718447 C62,1.08669903 60.913301,0 59.5728155,0 L59.5728155,0 Z M57.6282524,7.62742718 C57.8007282,11.4652427 54.9385437,15.7440777 49.8725243,15.7440777 C48.3316019,15.7440777 46.8973301,15.2923786 45.6898058,14.5182039 C47.1374272,14.688835 48.5823301,14.287233 49.7295146,13.3882039 C48.535534,13.3662136 47.527767,12.5773786 47.1805825,11.493301 C47.6081553,11.5750485 48.0287864,11.551068 48.412767,11.4466019 C47.1006311,11.1828641 46.1947087,10.0007767 46.2242718,8.73660194 C46.5920874,8.94101942 47.0128641,9.06378641 47.4601942,9.07796117 C46.2449515,8.26582524 45.9009709,6.66116505 46.6157282,5.435 C47.9615049,7.0857767 49.9721845,8.17213592 52.2398544,8.28592233 C51.8418447,6.57912621 53.1366505,4.93548544 54.8978641,4.93548544 C55.6827184,4.93548544 56.3918447,5.26679612 56.8895631,5.79713592 C57.5111165,5.67480583 58.0950485,5.44771845 58.6222816,5.13504854 C58.4185437,5.77223301 57.9858738,6.30694175 57.4225243,6.64466019 C57.974466,6.57878641 58.5003883,6.43208738 58.9897087,6.215 C58.6239806,6.76218447 58.1614563,7.24276699 57.6282524,7.62742718 L57.6282524,7.62742718 Z" id="twitter-3-icon"></path>
                </g>
            </g>
        </g>
    </g>
</svg>