<?xml version="1.0" encoding="UTF-8" standalone="no"?>
<svg width="20px" height="20px" viewBox="0 0 20 20" version="1.1" xmlns="http://www.w3.org/2000/svg" xmlns:xlink="http://www.w3.org/1999/xlink" xmlns:sketch="http://www.bohemiancoding.com/sketch/ns">
    <!-- Generator: Sketch 3.4.4 (17249) - http://www.bohemiancoding.com/sketch -->
    <title>twitter-3-icon</title>
    <desc>Created with Sketch.</desc>
    <defs></defs>
    <g id="Production" stroke="none" stroke-width="1" fill="none" fill-rule="evenodd" sketch:type="MSPage">
        <g id="Desktop-HD-Copy-6" sketch:type="MSArtboardGroup" transform="translate(-799.000000, -792.000000)" fill="#000000">
            <g id="Tickets" sketch:type="MSLayerGroup" transform="translate(0.000000, 693.000000)">
                <g id="Ticket" transform="translate(230.000000, 48.000000)" sketch:type="MSShapeGroup">
                    <g id="iconmonstr-twitter-3-icon" transform="translate(569.000000, 51.000000)">
                        <path d="M17.5728155,0 L2.42718447,0 C1.08669903,0 0,1.08669903 0,2.42718447 L0,17.5728155 C0,18.913301 1.08669903,20 2.42718447,20 L17.5728155,20 C18.913301,20 20,18.913301 20,17.5728155 L20,2.42718447 C20,1.08669903 18.913301,0 17.5728155,0 L17.5728155,0 Z M15.6282524,7.62742718 C15.8007282,11.4652427 12.9385437,15.7440777 7.87252427,15.7440777 C6.33160194,15.7440777 4.8973301,15.2923786 3.68980583,14.5182039 C5.13742718,14.688835 6.5823301,14.287233 7.72951456,13.3882039 C6.53553398,13.3662136 5.52776699,12.5773786 5.18058252,11.493301 C5.60815534,11.5750485 6.02878641,11.551068 6.41276699,11.4466019 C5.10063107,11.1828641 4.19470874,10.0007767 4.22427184,8.73660194 C4.59208738,8.94101942 5.01286408,9.06378641 5.46019417,9.07796117 C4.24495146,8.26582524 3.90097087,6.66116505 4.61572816,5.435 C5.96150485,7.0857767 7.97218447,8.17213592 10.2398544,8.28592233 C9.84184466,6.57912621 11.1366505,4.93548544 12.8978641,4.93548544 C13.6827184,4.93548544 14.3918447,5.26679612 14.8895631,5.79713592 C15.5111165,5.67480583 16.0950485,5.44771845 16.6222816,5.13504854 C16.4185437,5.77223301 15.9858738,6.30694175 15.4225243,6.64466019 C15.974466,6.57878641 16.5003883,6.43208738 16.9897087,6.215 C16.6239806,6.76218447 16.1614563,7.24276699 15.6282524,7.62742718 L15.6282524,7.62742718 Z" id="twitter-3-icon"></path>
                    </g>
                </g>
            </g>
        </g>
    </g>
</svg>