<?xml version="1.0" encoding="UTF-8" standalone="no"?>
<svg width="20px" height="20px" viewBox="0 0 20 20" version="1.1" xmlns="http://www.w3.org/2000/svg" xmlns:xlink="http://www.w3.org/1999/xlink" xmlns:sketch="http://www.bohemiancoding.com/sketch/ns">
    <!-- Generator: Sketch 3.4.4 (17249) - http://www.bohemiancoding.com/sketch -->
    <title>vk-3-icon</title>
    <desc>Created with Sketch.</desc>
    <defs></defs>
    <g id="Production" stroke="none" stroke-width="1" fill="none" fill-rule="evenodd" sketch:type="MSPage">
        <g id="Desktop-HD-Copy-6" sketch:type="MSArtboardGroup" transform="translate(-799.000000, -756.000000)" fill="#000000">
            <g id="Tickets" sketch:type="MSLayerGroup" transform="translate(0.000000, 693.000000)">
                <g id="Ticket" transform="translate(230.000000, 48.000000)" sketch:type="MSShapeGroup">
                    <g id="iconmonstr-vk-3-icon" transform="translate(569.000000, 15.000000)">
                        <path d="M17.5728155,0 L2.42718447,0 C1.08674757,0 0,1.08669903 0,2.42718447 L0,17.5728155 C0,18.913301 1.08674757,20 2.42718447,20 L17.5728155,20 C18.9133495,20 20,18.913301 20,17.5728155 L20,2.42718447 C20,1.08669903 18.9133495,0 17.5728155,0 L17.5728155,0 Z M16.3433495,14.2425728 L14.4765534,14.2425728 C13.422767,14.2425728 13.2432524,13.6416019 12.3748544,12.773301 C11.5904369,11.9887379 11.1557282,12.5904369 11.173835,13.7087864 C11.1785437,14.0054369 11.0328155,14.2425243 10.677767,14.2425243 C9.57203883,14.2425243 7.98286408,14.3983495 6.37514563,12.6629126 C4.63800971,10.7878155 3.16878641,7.50116505 3.04097087,7.16116505 C2.91325243,6.82116505 3.0926699,6.65354369 3.45878641,6.65354369 L5.35762136,6.65354369 C5.85970874,6.65354369 5.90257282,6.91131068 6.04281553,7.23135922 C6.62597087,8.56150485 8.02466019,11.2331553 8.39679612,9.74242718 C8.61048544,8.88626214 8.69834951,7.0626699 7.78218447,6.89179612 C7.13247573,6.7707767 8.72281553,5.93296117 10.5581068,6.3588835 C11.2302913,6.51490291 11.2325243,6.81703883 11.2236408,7.25679612 C11.1900485,8.92203883 10.9893204,9.88276699 11.4276699,10.1661165 C11.8467961,10.4368932 12.9500971,8.66339806 13.5301942,7.29475728 C13.6902427,6.91679612 13.722767,6.65354369 14.1733495,6.65354369 L16.4958252,6.65354369 C17.7117961,6.65354369 16.3375728,8.41097087 15.2858252,9.77490291 C14.4387864,10.8739806 14.4849029,10.8954854 15.4685922,11.8085922 C16.5032524,12.768835 17.8119417,14.2425728 16.3433495,14.2425728 L16.3433495,14.2425728 Z" id="vk-3-icon"></path>
                    </g>
                </g>
            </g>
        </g>
    </g>
</svg>